<svg width="656" height="195" viewBox="0 0 656 195" fill="none" xmlns="http://www.w3.org/2000/svg">
<path d="M606.485 126.947C601.154 140.473 592.64 162.337 588.72 172.383C588.168 173.806 588.195 175.393 588.794 176.796C589.393 178.199 590.515 179.303 591.916 179.868L628.327 194.589C629.021 194.87 629.763 195.01 630.51 194.999C631.258 194.989 631.996 194.83 632.682 194.53C633.368 194.229 633.99 193.795 634.51 193.251C635.031 192.706 635.44 192.063 635.716 191.358L653.378 146.29C653.994 144.725 654.3 143.053 654.278 141.368C654.256 139.683 653.907 138.019 653.251 136.471C652.594 134.923 651.644 133.522 650.453 132.348C649.263 131.173 647.856 130.248 646.313 129.626L648.901 123.06L625.067 113.461L622.608 119.685H622.517C619.439 118.549 616.046 118.672 613.055 120.026C610.063 121.381 607.708 123.863 606.485 126.947V126.947Z" fill="#F5F5F5"/>
<path d="M624.744 114.262L623.566 117.269L647.065 127.774L648.591 123.9L624.744 114.262Z" fill="#E0E0E0"/>
<path d="M629.522 104.57L651.748 113.556C652.705 113.942 653.471 114.699 653.878 115.658C654.285 116.618 654.299 117.703 653.918 118.673L651.562 124.675C651.317 125.3 650.838 125.8 650.229 126.066C649.621 126.331 648.933 126.341 648.318 126.092L623.531 116.071C622.916 115.823 622.423 115.336 622.161 114.718C621.899 114.101 621.89 113.403 622.135 112.779L624.491 106.777C624.872 105.806 625.617 105.029 626.563 104.616C627.509 104.203 628.578 104.188 629.534 104.575L629.522 104.57Z" fill="#EBEBEB"/>
<path d="M624.989 116.652C625.457 114.555 626.137 112.513 627.021 110.559C627.709 108.519 628.603 106.556 629.686 104.702C629.22 106.812 628.539 108.867 627.655 110.834C626.979 112.867 626.085 114.817 624.989 116.652Z" fill="#E0E0E0"/>
<path d="M628.134 117.925C628.602 115.825 629.283 113.778 630.165 111.819C630.84 109.778 631.734 107.818 632.831 105.976C632.363 108.077 631.682 110.123 630.799 112.082C630.125 114.123 629.231 116.083 628.134 117.925V117.925Z" fill="#E0E0E0"/>
<path d="M631.278 119.199C631.744 117.098 632.425 115.051 633.31 113.093C633.986 111.048 634.88 109.084 635.975 107.236C635.511 109.338 634.83 111.385 633.944 113.343C633.255 115.382 632.362 117.345 631.278 119.199V119.199Z" fill="#E0E0E0"/>
<path d="M634.423 120.473C634.88 118.369 635.561 116.321 636.454 114.367C637.13 112.322 638.024 110.358 639.12 108.51C638.651 110.612 637.965 112.659 637.075 114.616C636.391 116.655 635.502 118.618 634.423 120.473V120.473Z" fill="#E0E0E0"/>
<path d="M637.566 121.734C638.027 119.631 638.708 117.584 639.598 115.627C640.257 113.593 641.124 111.635 642.186 109.784C641.725 111.887 641.044 113.934 640.154 115.89C639.495 117.924 638.628 119.883 637.566 121.734V121.734Z" fill="#E0E0E0"/>
<path d="M640.724 123.008C641.193 120.905 641.878 118.859 642.768 116.901C643.453 114.862 644.342 112.9 645.421 111.044C644.964 113.149 644.283 115.196 643.389 117.151C642.713 119.196 641.819 121.159 640.724 123.008V123.008Z" fill="#E0E0E0"/>
<path d="M643.842 124.281C644.306 122.179 644.987 120.132 645.873 118.175C646.562 116.135 647.455 114.173 648.539 112.318C648.073 114.42 647.392 116.466 646.507 118.425C645.831 120.469 644.937 122.433 643.842 124.281V124.281Z" fill="#E0E0E0"/>
<path d="M646.986 125.542C647.454 123.445 648.134 121.403 649.018 119.449C649.694 117.404 650.588 115.44 651.683 113.592C651.215 115.693 650.534 117.739 649.652 119.698C648.971 121.737 648.077 123.696 646.986 125.542V125.542Z" fill="#E0E0E0"/>
<path d="M642.937 149.288L612.332 136.915C611.349 136.518 610.235 137.004 609.844 138.001L602.259 157.325C601.868 158.322 602.347 159.453 603.329 159.85L633.934 172.223C634.917 172.62 636.031 172.134 636.422 171.136L644.007 151.812C644.399 150.815 643.919 149.685 642.937 149.288Z" fill="#EBEBEB"/>
<path d="M634.072 170.4C634.108 170.266 634.151 170.135 634.202 170.006L634.59 168.929L636.104 164.871C637.398 161.365 639.339 156.415 641.642 150.427L641.784 150.781L611.816 138.739C611.726 138.739 612.645 138.385 612.256 138.555V138.634L612.192 138.805L612.062 139.133L611.803 139.79L611.286 141.103C610.937 141.97 610.6 142.836 610.264 143.729C609.591 145.45 608.97 147.144 608.258 148.811L604.48 158.384L604.311 157.977L625.739 166.802L631.898 169.428L633.555 170.137C633.754 170.219 633.948 170.311 634.137 170.413L633.594 170.229L631.976 169.612L625.817 167.222L604.079 158.594L603.794 158.489L603.91 158.187C605.101 155.141 606.343 151.937 607.65 148.601C608.297 146.934 608.944 145.24 609.643 143.519C609.979 142.653 610.315 141.786 610.665 140.893L611.169 139.58L611.441 138.923L611.57 138.595L611.635 138.424V138.345L612.088 138.148L642.017 150.23L642.263 150.335L642.159 150.584C639.727 156.625 637.721 161.589 636.311 165.121L634.68 169.061L634.253 170.072C634.15 170.308 634.09 170.417 634.072 170.4Z" fill="#E0E0E0"/>
<path d="M634.719 155.062C631.196 154.011 627.739 152.744 624.367 151.267C620.93 150.002 617.572 148.524 614.313 146.842C617.838 147.887 621.296 149.155 624.665 150.637C628.102 151.903 631.46 153.381 634.719 155.062V155.062Z" fill="#E0E0E0"/>
<path d="M633.348 158.568C629.822 157.525 626.365 156.258 622.996 154.773C619.561 153.502 616.204 152.024 612.942 150.348C616.467 151.396 619.924 152.663 623.294 154.143C626.73 155.411 630.087 156.889 633.348 158.568V158.568Z" fill="#E0E0E0"/>
<path d="M632.028 161.943C628.501 160.902 625.044 159.635 621.676 158.148C618.24 156.88 614.882 155.402 611.622 153.723C615.148 154.766 618.605 156.033 621.974 157.518C625.409 158.789 628.766 160.267 632.028 161.943V161.943Z" fill="#E0E0E0"/>
<path d="M645.032 128.917C641.218 127.746 637.472 126.356 633.814 124.754C630.067 123.36 626.399 121.755 622.828 119.948C626.649 121.112 630.399 122.502 634.06 124.111C637.803 125.503 641.466 127.108 645.032 128.917V128.917Z" fill="#E0E0E0"/>
<path d="M591.709 170.571C591.896 169.826 592.138 169.098 592.434 168.391C592.99 166.907 593.728 164.937 594.633 162.547C596.51 157.623 599.149 150.847 602.112 143.375C603.6 139.645 605.011 136.087 606.318 132.869C607.328 129.904 608.937 127.185 611.041 124.885C612.528 123.366 614.455 122.368 616.54 122.036C617.103 121.97 617.672 121.97 618.235 122.036C618.43 122.058 618.622 122.106 618.804 122.18C618.06 122.167 617.316 122.211 616.579 122.312C614.603 122.739 612.8 123.76 611.403 125.24C609.396 127.53 607.868 130.211 606.913 133.119C605.619 136.376 604.234 139.934 602.759 143.624C599.809 151.096 597.092 157.859 595.099 162.731L592.705 168.483C592.433 169.206 592.099 169.905 591.709 170.571V170.571Z" fill="white"/>
<path d="M632.624 194.326C632.111 193.987 631.634 193.595 631.2 193.157C630.76 192.75 630.204 192.277 629.544 191.752C628.884 191.227 628.172 190.583 627.305 189.966C625.33 188.462 623.269 187.076 621.133 185.817C618.512 184.317 615.792 183.001 612.994 181.877C610.182 180.757 607.299 179.831 604.364 179.106C601.963 178.524 599.53 178.085 597.079 177.793C596.031 177.636 595.073 177.596 594.245 177.517C593.417 177.439 592.679 177.412 592.097 177.399C591.482 177.403 590.867 177.355 590.26 177.255C590.866 177.148 591.482 177.104 592.097 177.123C592.692 177.123 593.391 177.123 594.258 177.123C595.125 177.123 596.07 177.123 597.118 177.294C599.603 177.515 602.071 177.901 604.506 178.45C607.482 179.152 610.406 180.069 613.253 181.194C616.082 182.361 618.824 183.734 621.457 185.305C623.595 186.605 625.648 188.043 627.603 189.612C628.444 190.255 629.156 190.925 629.79 191.49C630.341 191.961 630.868 192.46 631.368 192.987C631.827 193.393 632.247 193.841 632.624 194.326V194.326Z" fill="white"/>
<path d="M45.9478 27.8811H40.5003L28.6865 11.0331V0.0024143C28.6865 0.0024143 20.2629 -0.522852 21.2593 13.9221C22.2556 28.367 21.1816 24.677 21.1816 24.677C21.1816 24.677 3.31224 24.7558 1.77245 26.3316C0.685532 27.474 0.206771 45.4908 0.0126785 55.2214C-0.101919 57.5784 0.562943 59.9067 1.90161 61.8363C3.24028 63.7659 5.17598 65.1861 7.40112 65.8713C8.01086 66.0565 8.64131 66.1624 9.27734 66.1864C13.7285 66.1864 36.4502 62.5095 36.4502 62.5095H45.8572L45.9478 27.8811Z" fill="#F5F5F5"/>
<path d="M61.5391 24.8477L58.1878 62.6409H48.8584V25.6093L61.5391 24.8477Z" fill="#F5F5F5"/>
</svg>
